<mxfile host="app.diagrams.net" agent="Mozilla/5.0 (Macintosh; Intel Mac OS X 10_15_7) AppleWebKit/537.36 (KHTML, like Gecko) Chrome/128.0.0.0 Safari/537.36" version="24.7.8">
  <diagram id="d1ab7348-05c3-a1e3-ca4d-12c340fd6b49" name="Page-1">
    <mxGraphModel dx="3411" dy="4401" grid="1" gridSize="10" guides="1" tooltips="1" connect="1" arrows="1" fold="1" page="1" pageScale="1" pageWidth="1169" pageHeight="827" background="none" math="0" shadow="0">
      <root>
        <mxCell id="0" />
        <mxCell id="1" parent="0" />
        <mxCell id="KAji3a2Ef0K3yzbTcKAA-157" value="" style="rounded=0;whiteSpace=wrap;html=1;" vertex="1" parent="1">
          <mxGeometry x="1060" y="-2020" width="2760" height="1840" as="geometry" />
        </mxCell>
        <mxCell id="KAji3a2Ef0K3yzbTcKAA-104" value="" style="group" vertex="1" connectable="0" parent="1">
          <mxGeometry x="1890" y="-1940" width="1890" height="840" as="geometry" />
        </mxCell>
        <mxCell id="KAji3a2Ef0K3yzbTcKAA-7" value="&lt;b&gt;&lt;font style=&quot;font-size: 24px;&quot;&gt;GCP Development Project (sre-development-2613)&lt;/font&gt;&lt;/b&gt;" style="fillColor=#F6F6F6;strokeColor=none;shadow=0;gradientColor=none;fontSize=14;align=left;spacing=10;fontColor=#717171;9E9E9E;verticalAlign=top;spacingTop=-4;fontStyle=0;spacingLeft=40;html=1;container=0;" vertex="1" parent="KAji3a2Ef0K3yzbTcKAA-104">
          <mxGeometry width="1890" height="840" as="geometry" />
        </mxCell>
        <mxCell id="KAji3a2Ef0K3yzbTcKAA-10" value="Region - asia-southeast2" style="points=[[0,0],[0.25,0],[0.5,0],[0.75,0],[1,0],[1,0.25],[1,0.5],[1,0.75],[1,1],[0.75,1],[0.5,1],[0.25,1],[0,1],[0,0.75],[0,0.5],[0,0.25]];outlineConnect=0;html=1;whiteSpace=wrap;fontSize=12;fontStyle=0;container=1;pointerEvents=0;collapsible=0;recursiveResize=0;shape=mxgraph.aws4.group;grIcon=mxgraph.aws4.group_region;verticalAlign=top;align=left;spacingLeft=30;dashed=1;fillColor=#dae8fc;strokeColor=#6c8ebf;" vertex="1" parent="KAji3a2Ef0K3yzbTcKAA-104">
          <mxGeometry x="210" y="60" width="1650" height="750" as="geometry" />
        </mxCell>
        <mxCell id="KAji3a2Ef0K3yzbTcKAA-82" value="Cloudsql VPC" style="sketch=0;outlineConnect=0;html=1;whiteSpace=wrap;fontSize=12;fontStyle=0;shape=mxgraph.aws4.group;grIcon=mxgraph.aws4.group_vpc;verticalAlign=top;align=left;spacingLeft=30;dashed=0;" vertex="1" parent="KAji3a2Ef0K3yzbTcKAA-10">
          <mxGeometry x="1260" y="50" width="360" height="660" as="geometry" />
        </mxCell>
        <mxCell id="KAji3a2Ef0K3yzbTcKAA-87" style="edgeStyle=orthogonalEdgeStyle;rounded=0;orthogonalLoop=1;jettySize=auto;html=1;" edge="1" parent="KAji3a2Ef0K3yzbTcKAA-10" source="KAji3a2Ef0K3yzbTcKAA-85" target="KAji3a2Ef0K3yzbTcKAA-82">
          <mxGeometry relative="1" as="geometry" />
        </mxCell>
        <mxCell id="KAji3a2Ef0K3yzbTcKAA-85" value="" style="outlineConnect=0;dashed=0;verticalLabelPosition=bottom;verticalAlign=top;align=center;html=1;shape=mxgraph.aws3.vpc_peering;fillColor=#F58534;gradientColor=none;" vertex="1" parent="KAji3a2Ef0K3yzbTcKAA-10">
          <mxGeometry x="1160" y="344" width="69" height="72" as="geometry" />
        </mxCell>
        <mxCell id="KAji3a2Ef0K3yzbTcKAA-83" value="" style="strokeColor=#dddddd;shadow=1;strokeWidth=1;rounded=1;absoluteArcSize=1;arcSize=2;" vertex="1" parent="KAji3a2Ef0K3yzbTcKAA-10">
          <mxGeometry x="1290" y="140" width="310" height="100" as="geometry" />
        </mxCell>
        <mxCell id="KAji3a2Ef0K3yzbTcKAA-84" value="&lt;font style=&quot;font-size: 24px;&quot;&gt;Cloud SQL&lt;/font&gt;&lt;div&gt;&lt;font style=&quot;font-size: 24px;&quot;&gt;PostgreSQL&lt;/font&gt;&lt;/div&gt;" style="editableCssRules=.*;html=1;fontColor=#999999;shape=image;verticalLabelPosition=middle;verticalAlign=middle;labelPosition=right;align=left;spacingLeft=20;part=1;points=[];imageAspect=0;image=data:image/svg+xml,PHN2ZyB4bWxucz0iaHR0cDovL3d3dy53My5vcmcvMjAwMC9zdmciIHhtbG5zOnY9Imh0dHBzOi8vdmVjdGEuaW8vbmFubyIgd2lkdGg9IjE0LjY1OTk5OTg0NzQxMjExIiBoZWlnaHQ9IjIwIiB2aWV3Qm94PSIwIDAgMTQuNjU5OTk5ODQ3NDEyMTEgMjAiPiYjeGE7CTxzdHlsZSB0eXBlPSJ0ZXh0L2NzcyI+JiN4YTsJLnN0MHtmaWxsOiM0Mjg1ZjQ7fSYjeGE7CS5zdDF7ZmlsbDojNjY5ZGY2O30mI3hhOwkuc3Qye2ZpbGw6I2FlY2JmYTt9JiN4YTsJPC9zdHlsZT4mI3hhOwk8c3R5bGU+JiN4YTsJCS5Ee2ZpbGwtcnVsZTpldmVub2RkfSYjeGE7CTwvc3R5bGU+JiN4YTsJPHBhdGggZD0iTTcuMzMgMTUuMzV2LTMuMDFMMCA4LjQ0djMuMDF6bTAgNC42NXYtMy4wMUwwIDEzLjA5djMuMDF6IiBjbGFzcz0ic3QyIEQiLz4mI3hhOwk8cGF0aCBkPSJNMTQuNjYgOC40NGwtNy4zMyAzLjl2My4wMWw3LjMzLTMuOXptMCA0LjY1bC03LjMzIDMuOVYyMGw3LjMzLTMuOXoiIGNsYXNzPSJzdDEgRCIvPiYjeGE7CTxwYXRoIGQ9Ik03LjMzIDB2My4wMWw3LjMzIDMuOVYzLjl6IiBjbGFzcz0ic3QwIEQiLz4mI3hhOwk8cGF0aCBkPSJNMCA2LjkxbDcuMzMtMy45VjBMMCAzLjl6IiBjbGFzcz0iRCBzdDEiLz4mI3hhOwk8cGF0aCBkPSJNNy4zMyAxMC43OVY3Ljc3TDAgMy44N3YzLjAyeiIgY2xhc3M9IkQgc3QyIi8+JiN4YTsJPHBhdGggZD0iTTE0LjY2IDMuODdsLTcuMzMgMy45djMuMDJsNy4zMy0zLjl6IiBjbGFzcz0iRCBzdDEiLz4mI3hhOzwvc3ZnPg==;" vertex="1" parent="KAji3a2Ef0K3yzbTcKAA-83">
          <mxGeometry width="60" height="70" relative="1" as="geometry">
            <mxPoint x="19" y="15" as="offset" />
          </mxGeometry>
        </mxCell>
        <mxCell id="KAji3a2Ef0K3yzbTcKAA-13" value="VPC" style="sketch=0;outlineConnect=0;html=1;whiteSpace=wrap;fontSize=12;fontStyle=0;shape=mxgraph.aws4.group;grIcon=mxgraph.aws4.group_vpc;verticalAlign=top;align=left;spacingLeft=30;dashed=0;" vertex="1" parent="KAji3a2Ef0K3yzbTcKAA-104">
          <mxGeometry x="260" y="110" width="1080" height="660" as="geometry" />
        </mxCell>
        <mxCell id="KAji3a2Ef0K3yzbTcKAA-54" value="" style="strokeColor=#dddddd;shadow=1;strokeWidth=1;rounded=1;absoluteArcSize=1;arcSize=2;" vertex="1" parent="KAji3a2Ef0K3yzbTcKAA-104">
          <mxGeometry x="30" y="640" width="150" height="60" as="geometry" />
        </mxCell>
        <mxCell id="KAji3a2Ef0K3yzbTcKAA-55" value="Ephemeral&lt;br&gt;IP Addresses" style="editableCssRules=.*;html=1;fontColor=#999999;shape=image;verticalLabelPosition=middle;verticalAlign=middle;labelPosition=right;align=left;spacingLeft=20;part=1;points=[];imageAspect=0;image=data:image/svg+xml,PHN2ZyB4bWxucz0iaHR0cDovL3d3dy53My5vcmcvMjAwMC9zdmciIHhtbG5zOnY9Imh0dHBzOi8vdmVjdGEuaW8vbmFubyIgd2lkdGg9IjE5Ljk5OTk5ODA5MjY1MTM2NyIgaGVpZ2h0PSIyMCIgdmlld0JveD0iMCAtMi44NDIxNzA1NjE4NzU1NzQ1ZS0xNSAxOS45OTk5OTgwOTI2NTEzNjcgMjAiPiYjeGE7CTxzdHlsZSB0eXBlPSJ0ZXh0L2NzcyI+JiN4YTsJLnN0MHtmaWxsOiM0Mjg1ZjQ7fSYjeGE7CS5zdDF7ZmlsbDojNjY5ZGY2O30mI3hhOwk8L3N0eWxlPiYjeGE7CTxwYXRoIGNsYXNzPSJzdDEiIGQ9Ik0xNS40OSAxMC40djYuN2EuNC40IDAgMCAxLS40LjRIMi45YS40LjQgMCAwIDEtLjQtLjRWNC45YS40LjQgMCAwIDEgLjQtLjRoNi43YS40LjQgMCAwIDAgLjQtLjRWMi40YS40LjQgMCAwIDAtLjQtLjRILjRhLjQuNCAwIDAgMC0uNC40djE3LjJhLjQuNCAwIDAgMCAuNC40aDE3LjJhLjQuNCAwIDAgMCAuNC0uNHYtOS4yYS40LjQgMCAwIDAtLjQtLjRoLTEuNzFhLjQuNCAwIDAgMC0uNC40eiIvPiYjeGE7CTxwYXRoIGNsYXNzPSJzdDAiIGQ9Ik0xMiAuNHY3LjJhLjQuNCAwIDAgMCAuNC40aDcuMmEuNC40IDAgMCAwIC40LS40Vi40YS40LjQgMCAwIDAtLjQtLjRoLTcuMmEuNC40IDAgMCAwLS40LjR6bTUuNiA0LjFoLTEuNzFhLjQuNCAwIDAgMS0uNC0uNFYyLjRhLjQuNCAwIDAgMSAuNC0uNGgxLjcxYS40LjQgMCAwIDEgLjQuNHYxLjdhLjQuNCAwIDAgMS0uNC40eiIvPiYjeGE7PC9zdmc+;" vertex="1" parent="KAji3a2Ef0K3yzbTcKAA-54">
          <mxGeometry width="30" height="30" relative="1" as="geometry">
            <mxPoint x="15" y="15" as="offset" />
          </mxGeometry>
        </mxCell>
        <mxCell id="KAji3a2Ef0K3yzbTcKAA-57" value="Public subnet" style="points=[[0,0],[0.25,0],[0.5,0],[0.75,0],[1,0],[1,0.25],[1,0.5],[1,0.75],[1,1],[0.75,1],[0.5,1],[0.25,1],[0,1],[0,0.75],[0,0.5],[0,0.25]];outlineConnect=0;gradientColor=none;html=1;whiteSpace=wrap;fontSize=12;fontStyle=0;container=1;pointerEvents=0;collapsible=0;recursiveResize=0;shape=mxgraph.aws4.group;grIcon=mxgraph.aws4.group_security_group;grStroke=0;strokeColor=#7AA116;fillColor=#F2F6E8;verticalAlign=top;align=left;spacingLeft=30;fontColor=#248814;dashed=0;" vertex="1" parent="KAji3a2Ef0K3yzbTcKAA-104">
          <mxGeometry x="290" y="140" width="350" height="610" as="geometry" />
        </mxCell>
        <mxCell id="KAji3a2Ef0K3yzbTcKAA-93" style="edgeStyle=orthogonalEdgeStyle;rounded=0;orthogonalLoop=1;jettySize=auto;html=1;startArrow=classic;startFill=1;endArrow=none;endFill=0;fillColor=#dae8fc;strokeColor=#6c8ebf;strokeWidth=2;" edge="1" parent="KAji3a2Ef0K3yzbTcKAA-57" source="KAji3a2Ef0K3yzbTcKAA-61">
          <mxGeometry relative="1" as="geometry">
            <mxPoint x="390" y="445" as="targetPoint" />
          </mxGeometry>
        </mxCell>
        <mxCell id="KAji3a2Ef0K3yzbTcKAA-61" value="" style="strokeColor=#dddddd;shadow=1;strokeWidth=1;rounded=1;absoluteArcSize=1;arcSize=2;" vertex="1" parent="KAji3a2Ef0K3yzbTcKAA-57">
          <mxGeometry x="25" y="410" width="295" height="70" as="geometry" />
        </mxCell>
        <mxCell id="KAji3a2Ef0K3yzbTcKAA-62" value="Cloud NAT" style="sketch=0;dashed=0;connectable=0;html=1;fillColor=#757575;strokeColor=none;shape=mxgraph.gcp2.nat;part=1;labelPosition=right;verticalLabelPosition=middle;align=left;verticalAlign=middle;spacingLeft=5;fontSize=12;" vertex="1" parent="KAji3a2Ef0K3yzbTcKAA-61">
          <mxGeometry y="0.5" width="32" height="32" relative="1" as="geometry">
            <mxPoint x="5" y="-16" as="offset" />
          </mxGeometry>
        </mxCell>
        <mxCell id="KAji3a2Ef0K3yzbTcKAA-64" value="" style="strokeColor=#dddddd;shadow=1;strokeWidth=1;rounded=1;absoluteArcSize=1;arcSize=2;" vertex="1" parent="KAji3a2Ef0K3yzbTcKAA-57">
          <mxGeometry x="25" y="40" width="300" height="56" as="geometry" />
        </mxCell>
        <mxCell id="KAji3a2Ef0K3yzbTcKAA-65" value="Network Load Balancer" style="sketch=0;dashed=0;connectable=0;html=1;fillColor=#757575;strokeColor=none;shape=mxgraph.gcp2.network_load_balancer;part=1;labelPosition=right;verticalLabelPosition=middle;align=left;verticalAlign=middle;spacingLeft=5;fontSize=12;" vertex="1" parent="KAji3a2Ef0K3yzbTcKAA-64">
          <mxGeometry y="0.5" width="32" height="32" relative="1" as="geometry">
            <mxPoint x="5" y="-16" as="offset" />
          </mxGeometry>
        </mxCell>
        <mxCell id="KAji3a2Ef0K3yzbTcKAA-80" value="IGW" style="outlineConnect=0;dashed=0;verticalLabelPosition=bottom;verticalAlign=top;align=center;html=1;shape=mxgraph.aws3.internet_gateway;fillColor=#F58534;gradientColor=none;" vertex="1" parent="KAji3a2Ef0K3yzbTcKAA-104">
          <mxGeometry x="55.25" y="368.1700000000001" width="99.5" height="103.83" as="geometry" />
        </mxCell>
        <mxCell id="KAji3a2Ef0K3yzbTcKAA-86" style="edgeStyle=orthogonalEdgeStyle;rounded=0;orthogonalLoop=1;jettySize=auto;html=1;" edge="1" parent="KAji3a2Ef0K3yzbTcKAA-104" source="KAji3a2Ef0K3yzbTcKAA-85" target="KAji3a2Ef0K3yzbTcKAA-13">
          <mxGeometry relative="1" as="geometry" />
        </mxCell>
        <mxCell id="KAji3a2Ef0K3yzbTcKAA-36" value="Private subnet&amp;nbsp;10.0.0.0/18" style="points=[[0,0],[0.25,0],[0.5,0],[0.75,0],[1,0],[1,0.25],[1,0.5],[1,0.75],[1,1],[0.75,1],[0.5,1],[0.25,1],[0,1],[0,0.75],[0,0.5],[0,0.25]];outlineConnect=0;gradientColor=none;html=1;whiteSpace=wrap;fontSize=12;fontStyle=0;container=0;pointerEvents=0;collapsible=0;recursiveResize=0;shape=mxgraph.aws4.group;grIcon=mxgraph.aws4.group_security_group;grStroke=0;strokeColor=#00A4A6;fillColor=#E6F6F7;verticalAlign=top;align=left;spacingLeft=30;fontColor=#147EBA;dashed=0;" vertex="1" parent="KAji3a2Ef0K3yzbTcKAA-104">
          <mxGeometry x="680" y="140" width="640" height="610" as="geometry" />
        </mxCell>
        <mxCell id="KAji3a2Ef0K3yzbTcKAA-40" value="" style="edgeStyle=orthogonalEdgeStyle;fontSize=12;html=1;endArrow=blockThin;endFill=1;rounded=0;strokeWidth=2;endSize=4;startSize=4;dashed=1;dashPattern=1 3;strokeColor=#4284F3;entryX=0.5;entryY=1;entryDx=0;entryDy=0;entryPerimeter=0;" edge="1" parent="KAji3a2Ef0K3yzbTcKAA-104" target="KAji3a2Ef0K3yzbTcKAA-38">
          <mxGeometry width="100" relative="1" as="geometry">
            <mxPoint x="855" y="460" as="sourcePoint" />
            <mxPoint x="480" y="520" as="targetPoint" />
          </mxGeometry>
        </mxCell>
        <mxCell id="KAji3a2Ef0K3yzbTcKAA-15" value="Zone A - asia-southeast2-a" style="sketch=0;outlineConnect=0;gradientColor=none;html=1;whiteSpace=wrap;fontSize=12;fontStyle=0;shape=mxgraph.aws4.group;grIcon=mxgraph.aws4.group_availability_zone;strokeColor=#545B64;fillColor=none;verticalAlign=top;align=left;spacingLeft=30;fontColor=#545B64;dashed=1;container=0;" vertex="1" parent="KAji3a2Ef0K3yzbTcKAA-104">
          <mxGeometry x="720" y="190" width="270" height="530" as="geometry" />
        </mxCell>
        <mxCell id="KAji3a2Ef0K3yzbTcKAA-37" value="Zone B - asia-southeast2-b" style="sketch=0;outlineConnect=0;gradientColor=none;html=1;whiteSpace=wrap;fontSize=12;fontStyle=0;shape=mxgraph.aws4.group;grIcon=mxgraph.aws4.group_availability_zone;strokeColor=#545B64;fillColor=none;verticalAlign=top;align=left;spacingLeft=30;fontColor=#545B64;dashed=1;container=0;" vertex="1" parent="KAji3a2Ef0K3yzbTcKAA-104">
          <mxGeometry x="1020" y="190" width="270" height="430" as="geometry" />
        </mxCell>
        <mxCell id="KAji3a2Ef0K3yzbTcKAA-50" value="" style="rounded=1;arcSize=10;dashed=0;fillColor=none;gradientColor=none;strokeWidth=2;container=0;" vertex="1" parent="KAji3a2Ef0K3yzbTcKAA-104">
          <mxGeometry x="1048" y="240" width="200" height="280" as="geometry" />
        </mxCell>
        <mxCell id="KAji3a2Ef0K3yzbTcKAA-41" value="" style="aspect=fixed;sketch=0;html=1;dashed=0;whitespace=wrap;verticalLabelPosition=bottom;verticalAlign=top;fillColor=#2875E2;strokeColor=#ffffff;points=[[0.005,0.63,0],[0.1,0.2,0],[0.9,0.2,0],[0.5,0,0],[0.995,0.63,0],[0.72,0.99,0],[0.5,1,0],[0.28,0.99,0]];shape=mxgraph.kubernetes.icon2;kubernetesLabel=1;prIcon=node;container=0;" vertex="1" parent="KAji3a2Ef0K3yzbTcKAA-104">
          <mxGeometry x="1099.56" y="257" width="96.88" height="93" as="geometry" />
        </mxCell>
        <mxCell id="KAji3a2Ef0K3yzbTcKAA-51" value="" style="aspect=fixed;sketch=0;html=1;dashed=0;whitespace=wrap;verticalLabelPosition=bottom;verticalAlign=top;fillColor=#2875E2;strokeColor=#ffffff;points=[[0.005,0.63,0],[0.1,0.2,0],[0.9,0.2,0],[0.5,0,0],[0.995,0.63,0],[0.72,0.99,0],[0.5,1,0],[0.28,0.99,0]];shape=mxgraph.kubernetes.icon2;prIcon=api;container=0;" vertex="1" parent="KAji3a2Ef0K3yzbTcKAA-104">
          <mxGeometry x="1040" y="230" width="50" height="48" as="geometry" />
        </mxCell>
        <mxCell id="KAji3a2Ef0K3yzbTcKAA-39" value="" style="aspect=fixed;sketch=0;html=1;dashed=0;whitespace=wrap;verticalLabelPosition=bottom;verticalAlign=top;fillColor=#2875E2;strokeColor=#ffffff;points=[[0.005,0.63,0],[0.1,0.2,0],[0.9,0.2,0],[0.5,0,0],[0.995,0.63,0],[0.72,0.99,0],[0.5,1,0],[0.28,0.99,0]];shape=mxgraph.kubernetes.icon2;kubernetesLabel=1;prIcon=node;container=0;" vertex="1" parent="KAji3a2Ef0K3yzbTcKAA-104">
          <mxGeometry x="806.56" y="420" width="96.88" height="93" as="geometry" />
        </mxCell>
        <mxCell id="KAji3a2Ef0K3yzbTcKAA-38" value="" style="aspect=fixed;sketch=0;html=1;dashed=0;whitespace=wrap;verticalLabelPosition=bottom;verticalAlign=top;fillColor=#2875E2;strokeColor=#ffffff;points=[[0.005,0.63,0],[0.1,0.2,0],[0.9,0.2,0],[0.5,0,0],[0.995,0.63,0],[0.72,0.99,0],[0.5,1,0],[0.28,0.99,0]];shape=mxgraph.kubernetes.icon2;kubernetesLabel=1;prIcon=control_plane;container=0;" vertex="1" parent="KAji3a2Ef0K3yzbTcKAA-104">
          <mxGeometry x="806.56" y="257" width="96.88" height="93" as="geometry" />
        </mxCell>
        <mxCell id="KAji3a2Ef0K3yzbTcKAA-44" value="" style="rounded=1;arcSize=10;dashed=0;fillColor=none;gradientColor=none;strokeWidth=2;container=0;" vertex="1" parent="KAji3a2Ef0K3yzbTcKAA-104">
          <mxGeometry x="760" y="240" width="200" height="280" as="geometry" />
        </mxCell>
        <mxCell id="KAji3a2Ef0K3yzbTcKAA-47" value="" style="aspect=fixed;sketch=0;html=1;dashed=0;whitespace=wrap;verticalLabelPosition=bottom;verticalAlign=top;fillColor=#2875E2;strokeColor=#ffffff;points=[[0.005,0.63,0],[0.1,0.2,0],[0.9,0.2,0],[0.5,0,0],[0.995,0.63,0],[0.72,0.99,0],[0.5,1,0],[0.28,0.99,0]];shape=mxgraph.kubernetes.icon2;prIcon=api;container=0;" vertex="1" parent="KAji3a2Ef0K3yzbTcKAA-104">
          <mxGeometry x="750" y="230" width="50" height="48" as="geometry" />
        </mxCell>
        <mxCell id="KAji3a2Ef0K3yzbTcKAA-42" value="" style="edgeStyle=orthogonalEdgeStyle;fontSize=12;html=1;endArrow=blockThin;endFill=1;rounded=0;strokeWidth=2;endSize=4;startSize=4;dashed=1;dashPattern=1 3;strokeColor=#4284F3;entryX=0.995;entryY=0.63;entryDx=0;entryDy=0;entryPerimeter=0;exitX=0.005;exitY=0.63;exitDx=0;exitDy=0;exitPerimeter=0;" edge="1" parent="KAji3a2Ef0K3yzbTcKAA-104" source="KAji3a2Ef0K3yzbTcKAA-41" target="KAji3a2Ef0K3yzbTcKAA-38">
          <mxGeometry width="100" relative="1" as="geometry">
            <mxPoint x="865" y="470" as="sourcePoint" />
            <mxPoint x="865" y="360" as="targetPoint" />
          </mxGeometry>
        </mxCell>
        <mxCell id="KAji3a2Ef0K3yzbTcKAA-103" style="edgeStyle=orthogonalEdgeStyle;rounded=0;orthogonalLoop=1;jettySize=auto;html=1;entryX=1;entryY=0.5;entryDx=0;entryDy=0;startArrow=block;startFill=1;endArrow=none;endFill=0;fillColor=#f8cecc;strokeColor=#b85450;" edge="1" parent="KAji3a2Ef0K3yzbTcKAA-104" source="KAji3a2Ef0K3yzbTcKAA-52" target="KAji3a2Ef0K3yzbTcKAA-54">
          <mxGeometry relative="1" as="geometry">
            <Array as="points">
              <mxPoint x="660" y="615" />
              <mxPoint x="660" y="670" />
            </Array>
          </mxGeometry>
        </mxCell>
        <mxCell id="KAji3a2Ef0K3yzbTcKAA-52" value="Gitlab Runner Agent" style="editableCssRules=.*;html=1;shape=image;verticalLabelPosition=bottom;labelBackgroundColor=#ffffff;verticalAlign=top;aspect=fixed;imageAspect=0;image=data:image/svg+xml,PHN2ZyB4bWxucz0iaHR0cDovL3d3dy53My5vcmcvMjAwMC9zdmciIHhtbG5zOnY9Imh0dHBzOi8vdmVjdGEuaW8vbmFubyIgd2lkdGg9IjE2LjAwMDAwMTkwNzM0ODYzMyIgaGVpZ2h0PSIxNi4wMDAwMDE5MDczNDg2MzMiIHZpZXdCb3g9Ii03LjE4NzExMDA2NTA3Mzg4N2UtMTMgLTIuNDg2ODk5MTA5MjkyMjI5N2UtMTUgMTYuMDAwMDAxOTA3MzQ4NjMzIDE2LjAwMDAwMTkwNzM0ODYzMyI+JiN4YTsJPHN0eWxlIHR5cGU9InRleHQvY3NzIj4mI3hhOwkuc3Qwe2ZpbGw6IzQyODVmNDt9JiN4YTsJPC9zdHlsZT4mI3hhOwk8cGF0aCBjbGFzcz0ic3QwIiBkPSJNOS44NCA1Ljc3SDYuMTZhLjM5LjM5IDAgMCAwLS4zOS4zOXYzLjY4YS4zOS4zOSAwIDAgMCAuMzkuMzloMy42N2EuMzkuMzkgMCAwIDAgLjM5LS4zOVY2LjE2YS4zOS4zOSAwIDAgMC0uMzktLjM5bTUuODItLjI5YS4zNS4zNSAwIDAgMCAuMzUtLjM1di0uNTdhLjM1LjM1IDAgMCAwLS4zNS0uMzVoLTEuNzlWMi41NGEuMzkuMzkgMCAwIDAtLjM5LS4zOUgxMS44Vi4zNWEuMzUuMzUgMCAwIDAtLjM1LS4zNWgtLjU4YS4zNS4zNSAwIDAgMC0uMzUuMzV2MS43OUg4LjYzVi4zNUEuMzUuMzUgMCAwIDAgOC4yOSAwaC0uNThhLjM1LjM1IDAgMCAwLS4zNS4zNXYxLjc5SDUuNDhWLjM1QS4zNS4zNSAwIDAgMCA1LjEzIDBoLS41OGEuMzUuMzUgMCAwIDAtLjM1LjM1djEuNzlIMi41M2EuMzkuMzkgMCAwIDAtLjM5LjM5VjQuMkguMzVhLjM1LjM1IDAgMCAwLS4zNS4zNXYuNThhLjM1LjM1IDAgMCAwIC4zNS4zNWgxLjc5djEuODhILjM1YS4zNS4zNSAwIDAgMC0uMzUuMzV2LjU4YS4zNS4zNSAwIDAgMCAuMzUuMzVoMS43OXYxLjg5SC4zNWEuMzUuMzUgMCAwIDAtLjM1LjM1di41N2EuMzUuMzUgMCAwIDAgLjM1LjM1aDEuNzl2MS42N2EuMzkuMzkgMCAwIDAgLjM5LjM5SDQuMnYxLjc5YS4zNS4zNSAwIDAgMCAuMzUuMzVoLjU4YS4zNS4zNSAwIDAgMCAuMzUtLjM1di0xLjc5aDEuODh2MS43OWEuMzUuMzUgMCAwIDAgLjM1LjM1aC41OGEuMzUuMzUgMCAwIDAgLjM1LS4zNXYtMS43OWgxLjg5djEuNzlhLjM1LjM1IDAgMCAwIC4zNS4zNWguNTdhLjM1LjM1IDAgMCAwIC4zNS0uMzV2LTEuNzloMS42OGEuMzkuMzkgMCAwIDAgLjM5LS4zOVYxMS44aDEuNzlhLjM1LjM1IDAgMCAwIC4zNC0uMzV2LS41N2EuMzUuMzUgMCAwIDAtLjM1LS4zNWgtMS43OVY4LjY0aDEuNzlhLjM1LjM1IDAgMCAwIC4zNS0uMzV2LS41OGEuMzUuMzUgMCAwIDAtLjM1LS4zNWgtMS43OVY1LjQ4em0tMy4xMSA3LjA3SDMuNDVWMy40Nmg5LjA5eiIvPiYjeGE7PC9zdmc+;container=0;" vertex="1" parent="KAji3a2Ef0K3yzbTcKAA-104">
          <mxGeometry x="806.56" y="560" width="110" height="110" as="geometry" />
        </mxCell>
        <mxCell id="KAji3a2Ef0K3yzbTcKAA-92" value="HA-PROXY" style="pointerEvents=1;shadow=0;dashed=0;html=1;strokeColor=none;fillColor=#4495D1;labelPosition=center;verticalLabelPosition=bottom;verticalAlign=top;align=center;outlineConnect=0;shape=mxgraph.veeam.2d.proxy;" vertex="1" parent="KAji3a2Ef0K3yzbTcKAA-104">
          <mxGeometry x="1105.6" y="400" width="84.8" height="84.8" as="geometry" />
        </mxCell>
        <mxCell id="KAji3a2Ef0K3yzbTcKAA-95" style="edgeStyle=orthogonalEdgeStyle;rounded=0;orthogonalLoop=1;jettySize=auto;html=1;fillColor=#dae8fc;strokeColor=#6c8ebf;strokeWidth=2;startArrow=classic;startFill=1;" edge="1" parent="KAji3a2Ef0K3yzbTcKAA-104" source="KAji3a2Ef0K3yzbTcKAA-83" target="KAji3a2Ef0K3yzbTcKAA-92">
          <mxGeometry relative="1" as="geometry">
            <Array as="points">
              <mxPoint x="1655" y="380" />
              <mxPoint x="1240" y="380" />
              <mxPoint x="1240" y="442" />
            </Array>
          </mxGeometry>
        </mxCell>
        <mxCell id="KAji3a2Ef0K3yzbTcKAA-70" value="" style="edgeStyle=orthogonalEdgeStyle;fontSize=12;html=1;endArrow=blockThin;endFill=1;rounded=0;strokeWidth=2;endSize=4;startSize=4;strokeColor=#34A853;dashed=0;exitX=0.454;exitY=1.018;exitDx=0;exitDy=0;exitPerimeter=0;" edge="1" parent="KAji3a2Ef0K3yzbTcKAA-104" source="KAji3a2Ef0K3yzbTcKAA-64">
          <mxGeometry width="100" relative="1" as="geometry">
            <mxPoint x="660" y="440" as="sourcePoint" />
            <mxPoint x="760" y="440" as="targetPoint" />
            <Array as="points">
              <mxPoint x="451" y="338" />
              <mxPoint x="650" y="338" />
              <mxPoint x="650" y="440" />
            </Array>
          </mxGeometry>
        </mxCell>
        <mxCell id="KAji3a2Ef0K3yzbTcKAA-71" value="" style="edgeStyle=orthogonalEdgeStyle;fontSize=12;html=1;endArrow=blockThin;endFill=1;rounded=0;strokeWidth=2;endSize=4;startSize=4;strokeColor=#34A853;dashed=0;exitX=0.454;exitY=1.012;exitDx=0;exitDy=0;exitPerimeter=0;" edge="1" parent="KAji3a2Ef0K3yzbTcKAA-104" source="KAji3a2Ef0K3yzbTcKAA-64" target="KAji3a2Ef0K3yzbTcKAA-50">
          <mxGeometry width="100" relative="1" as="geometry">
            <mxPoint x="461" y="247" as="sourcePoint" />
            <mxPoint x="770" y="450" as="targetPoint" />
            <Array as="points">
              <mxPoint x="450" y="237" />
              <mxPoint x="450" y="340" />
              <mxPoint x="650" y="340" />
              <mxPoint x="650" y="550" />
              <mxPoint x="1148" y="550" />
            </Array>
          </mxGeometry>
        </mxCell>
        <mxCell id="KAji3a2Ef0K3yzbTcKAA-100" value="" style="shape=mxgraph.gcp2.google_cloud_platform;fillColor=#F6F6F6;strokeColor=none;shadow=0;gradientColor=none;" vertex="1" parent="KAji3a2Ef0K3yzbTcKAA-104">
          <mxGeometry x="20" y="10" width="23" height="20" as="geometry">
            <mxPoint x="20" y="10" as="offset" />
          </mxGeometry>
        </mxCell>
        <mxCell id="KAji3a2Ef0K3yzbTcKAA-101" value="" style="edgeStyle=orthogonalEdgeStyle;fontSize=12;html=1;endArrow=blockThin;endFill=1;rounded=0;strokeWidth=2;endSize=4;startSize=4;dashed=0;strokeColor=#4284F3;entryX=1;entryY=0.5;entryDx=0;entryDy=0;entryPerimeter=0;startArrow=classic;startFill=1;" edge="1" parent="KAji3a2Ef0K3yzbTcKAA-104" target="KAji3a2Ef0K3yzbTcKAA-80">
          <mxGeometry width="100" relative="1" as="geometry">
            <mxPoint x="260" y="420" as="sourcePoint" />
            <mxPoint x="360" y="340" as="targetPoint" />
            <Array as="points">
              <mxPoint x="260" y="420" />
            </Array>
          </mxGeometry>
        </mxCell>
        <mxCell id="KAji3a2Ef0K3yzbTcKAA-105" value="" style="group" vertex="1" connectable="0" parent="1">
          <mxGeometry x="1890" y="-1060" width="1890" height="840" as="geometry" />
        </mxCell>
        <mxCell id="KAji3a2Ef0K3yzbTcKAA-106" value="&lt;font style=&quot;font-weight: bold; font-size: 24px;&quot;&gt;GCP Production Project (sre-production-435510&lt;/font&gt;&lt;b style=&quot;background-color: initial;&quot;&gt;&lt;font style=&quot;font-size: 24px;&quot;&gt;)&lt;/font&gt;&lt;/b&gt;" style="fillColor=#F6F6F6;strokeColor=none;shadow=0;gradientColor=none;fontSize=14;align=left;spacing=10;fontColor=#717171;9E9E9E;verticalAlign=top;spacingTop=-4;fontStyle=0;spacingLeft=40;html=1;container=0;" vertex="1" parent="KAji3a2Ef0K3yzbTcKAA-105">
          <mxGeometry width="1890" height="840" as="geometry" />
        </mxCell>
        <mxCell id="KAji3a2Ef0K3yzbTcKAA-107" value="Region - asia-southeast2" style="points=[[0,0],[0.25,0],[0.5,0],[0.75,0],[1,0],[1,0.25],[1,0.5],[1,0.75],[1,1],[0.75,1],[0.5,1],[0.25,1],[0,1],[0,0.75],[0,0.5],[0,0.25]];outlineConnect=0;html=1;whiteSpace=wrap;fontSize=12;fontStyle=0;container=1;pointerEvents=0;collapsible=0;recursiveResize=0;shape=mxgraph.aws4.group;grIcon=mxgraph.aws4.group_region;verticalAlign=top;align=left;spacingLeft=30;dashed=1;fillColor=#dae8fc;strokeColor=#6c8ebf;" vertex="1" parent="KAji3a2Ef0K3yzbTcKAA-105">
          <mxGeometry x="210" y="60" width="1650" height="750" as="geometry" />
        </mxCell>
        <mxCell id="KAji3a2Ef0K3yzbTcKAA-108" value="Cloudsql VPC" style="sketch=0;outlineConnect=0;html=1;whiteSpace=wrap;fontSize=12;fontStyle=0;shape=mxgraph.aws4.group;grIcon=mxgraph.aws4.group_vpc;verticalAlign=top;align=left;spacingLeft=30;dashed=0;" vertex="1" parent="KAji3a2Ef0K3yzbTcKAA-107">
          <mxGeometry x="1260" y="50" width="360" height="660" as="geometry" />
        </mxCell>
        <mxCell id="KAji3a2Ef0K3yzbTcKAA-109" style="edgeStyle=orthogonalEdgeStyle;rounded=0;orthogonalLoop=1;jettySize=auto;html=1;" edge="1" parent="KAji3a2Ef0K3yzbTcKAA-107" source="KAji3a2Ef0K3yzbTcKAA-110" target="KAji3a2Ef0K3yzbTcKAA-108">
          <mxGeometry relative="1" as="geometry" />
        </mxCell>
        <mxCell id="KAji3a2Ef0K3yzbTcKAA-110" value="" style="outlineConnect=0;dashed=0;verticalLabelPosition=bottom;verticalAlign=top;align=center;html=1;shape=mxgraph.aws3.vpc_peering;fillColor=#F58534;gradientColor=none;" vertex="1" parent="KAji3a2Ef0K3yzbTcKAA-107">
          <mxGeometry x="1160" y="344" width="69" height="72" as="geometry" />
        </mxCell>
        <mxCell id="KAji3a2Ef0K3yzbTcKAA-111" value="" style="strokeColor=#dddddd;shadow=1;strokeWidth=1;rounded=1;absoluteArcSize=1;arcSize=2;" vertex="1" parent="KAji3a2Ef0K3yzbTcKAA-107">
          <mxGeometry x="1290" y="140" width="310" height="100" as="geometry" />
        </mxCell>
        <mxCell id="KAji3a2Ef0K3yzbTcKAA-112" value="&lt;font style=&quot;font-size: 24px;&quot;&gt;Cloud SQL&lt;/font&gt;&lt;div&gt;&lt;font style=&quot;font-size: 24px;&quot;&gt;PostgreSQL&lt;/font&gt;&lt;/div&gt;" style="editableCssRules=.*;html=1;fontColor=#999999;shape=image;verticalLabelPosition=middle;verticalAlign=middle;labelPosition=right;align=left;spacingLeft=20;part=1;points=[];imageAspect=0;image=data:image/svg+xml,PHN2ZyB4bWxucz0iaHR0cDovL3d3dy53My5vcmcvMjAwMC9zdmciIHhtbG5zOnY9Imh0dHBzOi8vdmVjdGEuaW8vbmFubyIgd2lkdGg9IjE0LjY1OTk5OTg0NzQxMjExIiBoZWlnaHQ9IjIwIiB2aWV3Qm94PSIwIDAgMTQuNjU5OTk5ODQ3NDEyMTEgMjAiPiYjeGE7CTxzdHlsZSB0eXBlPSJ0ZXh0L2NzcyI+JiN4YTsJLnN0MHtmaWxsOiM0Mjg1ZjQ7fSYjeGE7CS5zdDF7ZmlsbDojNjY5ZGY2O30mI3hhOwkuc3Qye2ZpbGw6I2FlY2JmYTt9JiN4YTsJPC9zdHlsZT4mI3hhOwk8c3R5bGU+JiN4YTsJCS5Ee2ZpbGwtcnVsZTpldmVub2RkfSYjeGE7CTwvc3R5bGU+JiN4YTsJPHBhdGggZD0iTTcuMzMgMTUuMzV2LTMuMDFMMCA4LjQ0djMuMDF6bTAgNC42NXYtMy4wMUwwIDEzLjA5djMuMDF6IiBjbGFzcz0ic3QyIEQiLz4mI3hhOwk8cGF0aCBkPSJNMTQuNjYgOC40NGwtNy4zMyAzLjl2My4wMWw3LjMzLTMuOXptMCA0LjY1bC03LjMzIDMuOVYyMGw3LjMzLTMuOXoiIGNsYXNzPSJzdDEgRCIvPiYjeGE7CTxwYXRoIGQ9Ik03LjMzIDB2My4wMWw3LjMzIDMuOVYzLjl6IiBjbGFzcz0ic3QwIEQiLz4mI3hhOwk8cGF0aCBkPSJNMCA2LjkxbDcuMzMtMy45VjBMMCAzLjl6IiBjbGFzcz0iRCBzdDEiLz4mI3hhOwk8cGF0aCBkPSJNNy4zMyAxMC43OVY3Ljc3TDAgMy44N3YzLjAyeiIgY2xhc3M9IkQgc3QyIi8+JiN4YTsJPHBhdGggZD0iTTE0LjY2IDMuODdsLTcuMzMgMy45djMuMDJsNy4zMy0zLjl6IiBjbGFzcz0iRCBzdDEiLz4mI3hhOzwvc3ZnPg==;" vertex="1" parent="KAji3a2Ef0K3yzbTcKAA-111">
          <mxGeometry width="60" height="70" relative="1" as="geometry">
            <mxPoint x="19" y="15" as="offset" />
          </mxGeometry>
        </mxCell>
        <mxCell id="KAji3a2Ef0K3yzbTcKAA-113" value="VPC" style="sketch=0;outlineConnect=0;html=1;whiteSpace=wrap;fontSize=12;fontStyle=0;shape=mxgraph.aws4.group;grIcon=mxgraph.aws4.group_vpc;verticalAlign=top;align=left;spacingLeft=30;dashed=0;" vertex="1" parent="KAji3a2Ef0K3yzbTcKAA-105">
          <mxGeometry x="260" y="110" width="1080" height="660" as="geometry" />
        </mxCell>
        <mxCell id="KAji3a2Ef0K3yzbTcKAA-114" value="" style="strokeColor=#dddddd;shadow=1;strokeWidth=1;rounded=1;absoluteArcSize=1;arcSize=2;" vertex="1" parent="KAji3a2Ef0K3yzbTcKAA-105">
          <mxGeometry x="30" y="640" width="150" height="60" as="geometry" />
        </mxCell>
        <mxCell id="KAji3a2Ef0K3yzbTcKAA-115" value="Ephemeral&lt;br&gt;IP Addresses" style="editableCssRules=.*;html=1;fontColor=#999999;shape=image;verticalLabelPosition=middle;verticalAlign=middle;labelPosition=right;align=left;spacingLeft=20;part=1;points=[];imageAspect=0;image=data:image/svg+xml,PHN2ZyB4bWxucz0iaHR0cDovL3d3dy53My5vcmcvMjAwMC9zdmciIHhtbG5zOnY9Imh0dHBzOi8vdmVjdGEuaW8vbmFubyIgd2lkdGg9IjE5Ljk5OTk5ODA5MjY1MTM2NyIgaGVpZ2h0PSIyMCIgdmlld0JveD0iMCAtMi44NDIxNzA1NjE4NzU1NzQ1ZS0xNSAxOS45OTk5OTgwOTI2NTEzNjcgMjAiPiYjeGE7CTxzdHlsZSB0eXBlPSJ0ZXh0L2NzcyI+JiN4YTsJLnN0MHtmaWxsOiM0Mjg1ZjQ7fSYjeGE7CS5zdDF7ZmlsbDojNjY5ZGY2O30mI3hhOwk8L3N0eWxlPiYjeGE7CTxwYXRoIGNsYXNzPSJzdDEiIGQ9Ik0xNS40OSAxMC40djYuN2EuNC40IDAgMCAxLS40LjRIMi45YS40LjQgMCAwIDEtLjQtLjRWNC45YS40LjQgMCAwIDEgLjQtLjRoNi43YS40LjQgMCAwIDAgLjQtLjRWMi40YS40LjQgMCAwIDAtLjQtLjRILjRhLjQuNCAwIDAgMC0uNC40djE3LjJhLjQuNCAwIDAgMCAuNC40aDE3LjJhLjQuNCAwIDAgMCAuNC0uNHYtOS4yYS40LjQgMCAwIDAtLjQtLjRoLTEuNzFhLjQuNCAwIDAgMC0uNC40eiIvPiYjeGE7CTxwYXRoIGNsYXNzPSJzdDAiIGQ9Ik0xMiAuNHY3LjJhLjQuNCAwIDAgMCAuNC40aDcuMmEuNC40IDAgMCAwIC40LS40Vi40YS40LjQgMCAwIDAtLjQtLjRoLTcuMmEuNC40IDAgMCAwLS40LjR6bTUuNiA0LjFoLTEuNzFhLjQuNCAwIDAgMS0uNC0uNFYyLjRhLjQuNCAwIDAgMSAuNC0uNGgxLjcxYS40LjQgMCAwIDEgLjQuNHYxLjdhLjQuNCAwIDAgMS0uNC40eiIvPiYjeGE7PC9zdmc+;" vertex="1" parent="KAji3a2Ef0K3yzbTcKAA-114">
          <mxGeometry width="30" height="30" relative="1" as="geometry">
            <mxPoint x="15" y="15" as="offset" />
          </mxGeometry>
        </mxCell>
        <mxCell id="KAji3a2Ef0K3yzbTcKAA-116" value="Public subnet" style="points=[[0,0],[0.25,0],[0.5,0],[0.75,0],[1,0],[1,0.25],[1,0.5],[1,0.75],[1,1],[0.75,1],[0.5,1],[0.25,1],[0,1],[0,0.75],[0,0.5],[0,0.25]];outlineConnect=0;gradientColor=none;html=1;whiteSpace=wrap;fontSize=12;fontStyle=0;container=1;pointerEvents=0;collapsible=0;recursiveResize=0;shape=mxgraph.aws4.group;grIcon=mxgraph.aws4.group_security_group;grStroke=0;strokeColor=#7AA116;fillColor=#F2F6E8;verticalAlign=top;align=left;spacingLeft=30;fontColor=#248814;dashed=0;" vertex="1" parent="KAji3a2Ef0K3yzbTcKAA-105">
          <mxGeometry x="290" y="140" width="350" height="610" as="geometry" />
        </mxCell>
        <mxCell id="KAji3a2Ef0K3yzbTcKAA-117" style="edgeStyle=orthogonalEdgeStyle;rounded=0;orthogonalLoop=1;jettySize=auto;html=1;startArrow=classic;startFill=1;endArrow=none;endFill=0;fillColor=#dae8fc;strokeColor=#6c8ebf;strokeWidth=2;" edge="1" parent="KAji3a2Ef0K3yzbTcKAA-116" source="KAji3a2Ef0K3yzbTcKAA-118">
          <mxGeometry relative="1" as="geometry">
            <mxPoint x="390" y="445" as="targetPoint" />
          </mxGeometry>
        </mxCell>
        <mxCell id="KAji3a2Ef0K3yzbTcKAA-118" value="" style="strokeColor=#dddddd;shadow=1;strokeWidth=1;rounded=1;absoluteArcSize=1;arcSize=2;" vertex="1" parent="KAji3a2Ef0K3yzbTcKAA-116">
          <mxGeometry x="25" y="410" width="295" height="70" as="geometry" />
        </mxCell>
        <mxCell id="KAji3a2Ef0K3yzbTcKAA-119" value="Cloud NAT" style="sketch=0;dashed=0;connectable=0;html=1;fillColor=#757575;strokeColor=none;shape=mxgraph.gcp2.nat;part=1;labelPosition=right;verticalLabelPosition=middle;align=left;verticalAlign=middle;spacingLeft=5;fontSize=12;" vertex="1" parent="KAji3a2Ef0K3yzbTcKAA-118">
          <mxGeometry y="0.5" width="32" height="32" relative="1" as="geometry">
            <mxPoint x="5" y="-16" as="offset" />
          </mxGeometry>
        </mxCell>
        <mxCell id="KAji3a2Ef0K3yzbTcKAA-120" value="" style="strokeColor=#dddddd;shadow=1;strokeWidth=1;rounded=1;absoluteArcSize=1;arcSize=2;" vertex="1" parent="KAji3a2Ef0K3yzbTcKAA-116">
          <mxGeometry x="25" y="40" width="300" height="56" as="geometry" />
        </mxCell>
        <mxCell id="KAji3a2Ef0K3yzbTcKAA-121" value="Network Load Balancer" style="sketch=0;dashed=0;connectable=0;html=1;fillColor=#757575;strokeColor=none;shape=mxgraph.gcp2.network_load_balancer;part=1;labelPosition=right;verticalLabelPosition=middle;align=left;verticalAlign=middle;spacingLeft=5;fontSize=12;" vertex="1" parent="KAji3a2Ef0K3yzbTcKAA-120">
          <mxGeometry y="0.5" width="32" height="32" relative="1" as="geometry">
            <mxPoint x="5" y="-16" as="offset" />
          </mxGeometry>
        </mxCell>
        <mxCell id="KAji3a2Ef0K3yzbTcKAA-122" value="IGW" style="outlineConnect=0;dashed=0;verticalLabelPosition=bottom;verticalAlign=top;align=center;html=1;shape=mxgraph.aws3.internet_gateway;fillColor=#F58534;gradientColor=none;" vertex="1" parent="KAji3a2Ef0K3yzbTcKAA-105">
          <mxGeometry x="55.25" y="368.1700000000001" width="99.5" height="103.83" as="geometry" />
        </mxCell>
        <mxCell id="KAji3a2Ef0K3yzbTcKAA-123" style="edgeStyle=orthogonalEdgeStyle;rounded=0;orthogonalLoop=1;jettySize=auto;html=1;" edge="1" parent="KAji3a2Ef0K3yzbTcKAA-105" source="KAji3a2Ef0K3yzbTcKAA-110" target="KAji3a2Ef0K3yzbTcKAA-113">
          <mxGeometry relative="1" as="geometry" />
        </mxCell>
        <mxCell id="KAji3a2Ef0K3yzbTcKAA-124" value="Private subnet&amp;nbsp;10.0.0.0/18" style="points=[[0,0],[0.25,0],[0.5,0],[0.75,0],[1,0],[1,0.25],[1,0.5],[1,0.75],[1,1],[0.75,1],[0.5,1],[0.25,1],[0,1],[0,0.75],[0,0.5],[0,0.25]];outlineConnect=0;gradientColor=none;html=1;whiteSpace=wrap;fontSize=12;fontStyle=0;container=0;pointerEvents=0;collapsible=0;recursiveResize=0;shape=mxgraph.aws4.group;grIcon=mxgraph.aws4.group_security_group;grStroke=0;strokeColor=#00A4A6;fillColor=#E6F6F7;verticalAlign=top;align=left;spacingLeft=30;fontColor=#147EBA;dashed=0;" vertex="1" parent="KAji3a2Ef0K3yzbTcKAA-105">
          <mxGeometry x="680" y="140" width="640" height="610" as="geometry" />
        </mxCell>
        <mxCell id="KAji3a2Ef0K3yzbTcKAA-125" value="" style="edgeStyle=orthogonalEdgeStyle;fontSize=12;html=1;endArrow=blockThin;endFill=1;rounded=0;strokeWidth=2;endSize=4;startSize=4;dashed=1;dashPattern=1 3;strokeColor=#4284F3;entryX=0.5;entryY=1;entryDx=0;entryDy=0;entryPerimeter=0;" edge="1" parent="KAji3a2Ef0K3yzbTcKAA-105" target="KAji3a2Ef0K3yzbTcKAA-132">
          <mxGeometry width="100" relative="1" as="geometry">
            <mxPoint x="855" y="460" as="sourcePoint" />
            <mxPoint x="480" y="520" as="targetPoint" />
          </mxGeometry>
        </mxCell>
        <mxCell id="KAji3a2Ef0K3yzbTcKAA-126" value="Zone A - asia-southeast2-a" style="sketch=0;outlineConnect=0;gradientColor=none;html=1;whiteSpace=wrap;fontSize=12;fontStyle=0;shape=mxgraph.aws4.group;grIcon=mxgraph.aws4.group_availability_zone;strokeColor=#545B64;fillColor=none;verticalAlign=top;align=left;spacingLeft=30;fontColor=#545B64;dashed=1;container=0;" vertex="1" parent="KAji3a2Ef0K3yzbTcKAA-105">
          <mxGeometry x="720" y="190" width="270" height="530" as="geometry" />
        </mxCell>
        <mxCell id="KAji3a2Ef0K3yzbTcKAA-127" value="Zone B - asia-southeast2-b" style="sketch=0;outlineConnect=0;gradientColor=none;html=1;whiteSpace=wrap;fontSize=12;fontStyle=0;shape=mxgraph.aws4.group;grIcon=mxgraph.aws4.group_availability_zone;strokeColor=#545B64;fillColor=none;verticalAlign=top;align=left;spacingLeft=30;fontColor=#545B64;dashed=1;container=0;" vertex="1" parent="KAji3a2Ef0K3yzbTcKAA-105">
          <mxGeometry x="1020" y="190" width="270" height="430" as="geometry" />
        </mxCell>
        <mxCell id="KAji3a2Ef0K3yzbTcKAA-128" value="" style="rounded=1;arcSize=10;dashed=0;fillColor=none;gradientColor=none;strokeWidth=2;container=0;" vertex="1" parent="KAji3a2Ef0K3yzbTcKAA-105">
          <mxGeometry x="1048" y="240" width="200" height="280" as="geometry" />
        </mxCell>
        <mxCell id="KAji3a2Ef0K3yzbTcKAA-129" value="" style="aspect=fixed;sketch=0;html=1;dashed=0;whitespace=wrap;verticalLabelPosition=bottom;verticalAlign=top;fillColor=#2875E2;strokeColor=#ffffff;points=[[0.005,0.63,0],[0.1,0.2,0],[0.9,0.2,0],[0.5,0,0],[0.995,0.63,0],[0.72,0.99,0],[0.5,1,0],[0.28,0.99,0]];shape=mxgraph.kubernetes.icon2;kubernetesLabel=1;prIcon=node;container=0;" vertex="1" parent="KAji3a2Ef0K3yzbTcKAA-105">
          <mxGeometry x="1099.56" y="257" width="96.88" height="93" as="geometry" />
        </mxCell>
        <mxCell id="KAji3a2Ef0K3yzbTcKAA-130" value="" style="aspect=fixed;sketch=0;html=1;dashed=0;whitespace=wrap;verticalLabelPosition=bottom;verticalAlign=top;fillColor=#2875E2;strokeColor=#ffffff;points=[[0.005,0.63,0],[0.1,0.2,0],[0.9,0.2,0],[0.5,0,0],[0.995,0.63,0],[0.72,0.99,0],[0.5,1,0],[0.28,0.99,0]];shape=mxgraph.kubernetes.icon2;prIcon=api;container=0;" vertex="1" parent="KAji3a2Ef0K3yzbTcKAA-105">
          <mxGeometry x="1040" y="230" width="50" height="48" as="geometry" />
        </mxCell>
        <mxCell id="KAji3a2Ef0K3yzbTcKAA-131" value="" style="aspect=fixed;sketch=0;html=1;dashed=0;whitespace=wrap;verticalLabelPosition=bottom;verticalAlign=top;fillColor=#2875E2;strokeColor=#ffffff;points=[[0.005,0.63,0],[0.1,0.2,0],[0.9,0.2,0],[0.5,0,0],[0.995,0.63,0],[0.72,0.99,0],[0.5,1,0],[0.28,0.99,0]];shape=mxgraph.kubernetes.icon2;kubernetesLabel=1;prIcon=node;container=0;" vertex="1" parent="KAji3a2Ef0K3yzbTcKAA-105">
          <mxGeometry x="806.56" y="420" width="96.88" height="93" as="geometry" />
        </mxCell>
        <mxCell id="KAji3a2Ef0K3yzbTcKAA-132" value="" style="aspect=fixed;sketch=0;html=1;dashed=0;whitespace=wrap;verticalLabelPosition=bottom;verticalAlign=top;fillColor=#2875E2;strokeColor=#ffffff;points=[[0.005,0.63,0],[0.1,0.2,0],[0.9,0.2,0],[0.5,0,0],[0.995,0.63,0],[0.72,0.99,0],[0.5,1,0],[0.28,0.99,0]];shape=mxgraph.kubernetes.icon2;kubernetesLabel=1;prIcon=control_plane;container=0;" vertex="1" parent="KAji3a2Ef0K3yzbTcKAA-105">
          <mxGeometry x="806.56" y="257" width="96.88" height="93" as="geometry" />
        </mxCell>
        <mxCell id="KAji3a2Ef0K3yzbTcKAA-133" value="" style="rounded=1;arcSize=10;dashed=0;fillColor=none;gradientColor=none;strokeWidth=2;container=0;" vertex="1" parent="KAji3a2Ef0K3yzbTcKAA-105">
          <mxGeometry x="760" y="240" width="200" height="280" as="geometry" />
        </mxCell>
        <mxCell id="KAji3a2Ef0K3yzbTcKAA-134" value="" style="aspect=fixed;sketch=0;html=1;dashed=0;whitespace=wrap;verticalLabelPosition=bottom;verticalAlign=top;fillColor=#2875E2;strokeColor=#ffffff;points=[[0.005,0.63,0],[0.1,0.2,0],[0.9,0.2,0],[0.5,0,0],[0.995,0.63,0],[0.72,0.99,0],[0.5,1,0],[0.28,0.99,0]];shape=mxgraph.kubernetes.icon2;prIcon=api;container=0;" vertex="1" parent="KAji3a2Ef0K3yzbTcKAA-105">
          <mxGeometry x="750" y="230" width="50" height="48" as="geometry" />
        </mxCell>
        <mxCell id="KAji3a2Ef0K3yzbTcKAA-135" value="" style="edgeStyle=orthogonalEdgeStyle;fontSize=12;html=1;endArrow=blockThin;endFill=1;rounded=0;strokeWidth=2;endSize=4;startSize=4;dashed=1;dashPattern=1 3;strokeColor=#4284F3;entryX=0.995;entryY=0.63;entryDx=0;entryDy=0;entryPerimeter=0;exitX=0.005;exitY=0.63;exitDx=0;exitDy=0;exitPerimeter=0;" edge="1" parent="KAji3a2Ef0K3yzbTcKAA-105" source="KAji3a2Ef0K3yzbTcKAA-129" target="KAji3a2Ef0K3yzbTcKAA-132">
          <mxGeometry width="100" relative="1" as="geometry">
            <mxPoint x="865" y="470" as="sourcePoint" />
            <mxPoint x="865" y="360" as="targetPoint" />
          </mxGeometry>
        </mxCell>
        <mxCell id="KAji3a2Ef0K3yzbTcKAA-136" style="edgeStyle=orthogonalEdgeStyle;rounded=0;orthogonalLoop=1;jettySize=auto;html=1;entryX=1;entryY=0.5;entryDx=0;entryDy=0;startArrow=block;startFill=1;endArrow=none;endFill=0;fillColor=#f8cecc;strokeColor=#b85450;" edge="1" parent="KAji3a2Ef0K3yzbTcKAA-105" source="KAji3a2Ef0K3yzbTcKAA-137" target="KAji3a2Ef0K3yzbTcKAA-114">
          <mxGeometry relative="1" as="geometry">
            <Array as="points">
              <mxPoint x="660" y="615" />
              <mxPoint x="660" y="670" />
            </Array>
          </mxGeometry>
        </mxCell>
        <mxCell id="KAji3a2Ef0K3yzbTcKAA-137" value="Gitlab Runner Agent" style="editableCssRules=.*;html=1;shape=image;verticalLabelPosition=bottom;labelBackgroundColor=#ffffff;verticalAlign=top;aspect=fixed;imageAspect=0;image=data:image/svg+xml,PHN2ZyB4bWxucz0iaHR0cDovL3d3dy53My5vcmcvMjAwMC9zdmciIHhtbG5zOnY9Imh0dHBzOi8vdmVjdGEuaW8vbmFubyIgd2lkdGg9IjE2LjAwMDAwMTkwNzM0ODYzMyIgaGVpZ2h0PSIxNi4wMDAwMDE5MDczNDg2MzMiIHZpZXdCb3g9Ii03LjE4NzExMDA2NTA3Mzg4N2UtMTMgLTIuNDg2ODk5MTA5MjkyMjI5N2UtMTUgMTYuMDAwMDAxOTA3MzQ4NjMzIDE2LjAwMDAwMTkwNzM0ODYzMyI+JiN4YTsJPHN0eWxlIHR5cGU9InRleHQvY3NzIj4mI3hhOwkuc3Qwe2ZpbGw6IzQyODVmNDt9JiN4YTsJPC9zdHlsZT4mI3hhOwk8cGF0aCBjbGFzcz0ic3QwIiBkPSJNOS44NCA1Ljc3SDYuMTZhLjM5LjM5IDAgMCAwLS4zOS4zOXYzLjY4YS4zOS4zOSAwIDAgMCAuMzkuMzloMy42N2EuMzkuMzkgMCAwIDAgLjM5LS4zOVY2LjE2YS4zOS4zOSAwIDAgMC0uMzktLjM5bTUuODItLjI5YS4zNS4zNSAwIDAgMCAuMzUtLjM1di0uNTdhLjM1LjM1IDAgMCAwLS4zNS0uMzVoLTEuNzlWMi41NGEuMzkuMzkgMCAwIDAtLjM5LS4zOUgxMS44Vi4zNWEuMzUuMzUgMCAwIDAtLjM1LS4zNWgtLjU4YS4zNS4zNSAwIDAgMC0uMzUuMzV2MS43OUg4LjYzVi4zNUEuMzUuMzUgMCAwIDAgOC4yOSAwaC0uNThhLjM1LjM1IDAgMCAwLS4zNS4zNXYxLjc5SDUuNDhWLjM1QS4zNS4zNSAwIDAgMCA1LjEzIDBoLS41OGEuMzUuMzUgMCAwIDAtLjM1LjM1djEuNzlIMi41M2EuMzkuMzkgMCAwIDAtLjM5LjM5VjQuMkguMzVhLjM1LjM1IDAgMCAwLS4zNS4zNXYuNThhLjM1LjM1IDAgMCAwIC4zNS4zNWgxLjc5djEuODhILjM1YS4zNS4zNSAwIDAgMC0uMzUuMzV2LjU4YS4zNS4zNSAwIDAgMCAuMzUuMzVoMS43OXYxLjg5SC4zNWEuMzUuMzUgMCAwIDAtLjM1LjM1di41N2EuMzUuMzUgMCAwIDAgLjM1LjM1aDEuNzl2MS42N2EuMzkuMzkgMCAwIDAgLjM5LjM5SDQuMnYxLjc5YS4zNS4zNSAwIDAgMCAuMzUuMzVoLjU4YS4zNS4zNSAwIDAgMCAuMzUtLjM1di0xLjc5aDEuODh2MS43OWEuMzUuMzUgMCAwIDAgLjM1LjM1aC41OGEuMzUuMzUgMCAwIDAgLjM1LS4zNXYtMS43OWgxLjg5djEuNzlhLjM1LjM1IDAgMCAwIC4zNS4zNWguNTdhLjM1LjM1IDAgMCAwIC4zNS0uMzV2LTEuNzloMS42OGEuMzkuMzkgMCAwIDAgLjM5LS4zOVYxMS44aDEuNzlhLjM1LjM1IDAgMCAwIC4zNC0uMzV2LS41N2EuMzUuMzUgMCAwIDAtLjM1LS4zNWgtMS43OVY4LjY0aDEuNzlhLjM1LjM1IDAgMCAwIC4zNS0uMzV2LS41OGEuMzUuMzUgMCAwIDAtLjM1LS4zNWgtMS43OVY1LjQ4em0tMy4xMSA3LjA3SDMuNDVWMy40Nmg5LjA5eiIvPiYjeGE7PC9zdmc+;container=0;" vertex="1" parent="KAji3a2Ef0K3yzbTcKAA-105">
          <mxGeometry x="806.56" y="560" width="110" height="110" as="geometry" />
        </mxCell>
        <mxCell id="KAji3a2Ef0K3yzbTcKAA-138" value="HA-PROXY" style="pointerEvents=1;shadow=0;dashed=0;html=1;strokeColor=none;fillColor=#4495D1;labelPosition=center;verticalLabelPosition=bottom;verticalAlign=top;align=center;outlineConnect=0;shape=mxgraph.veeam.2d.proxy;" vertex="1" parent="KAji3a2Ef0K3yzbTcKAA-105">
          <mxGeometry x="1105.6" y="400" width="84.8" height="84.8" as="geometry" />
        </mxCell>
        <mxCell id="KAji3a2Ef0K3yzbTcKAA-139" style="edgeStyle=orthogonalEdgeStyle;rounded=0;orthogonalLoop=1;jettySize=auto;html=1;fillColor=#dae8fc;strokeColor=#6c8ebf;strokeWidth=2;startArrow=classic;startFill=1;" edge="1" parent="KAji3a2Ef0K3yzbTcKAA-105" source="KAji3a2Ef0K3yzbTcKAA-111" target="KAji3a2Ef0K3yzbTcKAA-138">
          <mxGeometry relative="1" as="geometry">
            <Array as="points">
              <mxPoint x="1655" y="380" />
              <mxPoint x="1240" y="380" />
              <mxPoint x="1240" y="442" />
            </Array>
          </mxGeometry>
        </mxCell>
        <mxCell id="KAji3a2Ef0K3yzbTcKAA-140" value="" style="edgeStyle=orthogonalEdgeStyle;fontSize=12;html=1;endArrow=blockThin;endFill=1;rounded=0;strokeWidth=2;endSize=4;startSize=4;strokeColor=#34A853;dashed=0;exitX=0.454;exitY=1.018;exitDx=0;exitDy=0;exitPerimeter=0;" edge="1" parent="KAji3a2Ef0K3yzbTcKAA-105" source="KAji3a2Ef0K3yzbTcKAA-120">
          <mxGeometry width="100" relative="1" as="geometry">
            <mxPoint x="660" y="440" as="sourcePoint" />
            <mxPoint x="760" y="440" as="targetPoint" />
            <Array as="points">
              <mxPoint x="451" y="338" />
              <mxPoint x="650" y="338" />
              <mxPoint x="650" y="440" />
            </Array>
          </mxGeometry>
        </mxCell>
        <mxCell id="KAji3a2Ef0K3yzbTcKAA-141" value="" style="edgeStyle=orthogonalEdgeStyle;fontSize=12;html=1;endArrow=blockThin;endFill=1;rounded=0;strokeWidth=2;endSize=4;startSize=4;strokeColor=#34A853;dashed=0;exitX=0.454;exitY=1.012;exitDx=0;exitDy=0;exitPerimeter=0;" edge="1" parent="KAji3a2Ef0K3yzbTcKAA-105" source="KAji3a2Ef0K3yzbTcKAA-120" target="KAji3a2Ef0K3yzbTcKAA-128">
          <mxGeometry width="100" relative="1" as="geometry">
            <mxPoint x="461" y="247" as="sourcePoint" />
            <mxPoint x="770" y="450" as="targetPoint" />
            <Array as="points">
              <mxPoint x="450" y="237" />
              <mxPoint x="450" y="340" />
              <mxPoint x="650" y="340" />
              <mxPoint x="650" y="550" />
              <mxPoint x="1148" y="550" />
            </Array>
          </mxGeometry>
        </mxCell>
        <mxCell id="KAji3a2Ef0K3yzbTcKAA-142" value="" style="shape=mxgraph.gcp2.google_cloud_platform;fillColor=#F6F6F6;strokeColor=none;shadow=0;gradientColor=none;" vertex="1" parent="KAji3a2Ef0K3yzbTcKAA-105">
          <mxGeometry x="20" y="10" width="23" height="20" as="geometry">
            <mxPoint x="20" y="10" as="offset" />
          </mxGeometry>
        </mxCell>
        <mxCell id="KAji3a2Ef0K3yzbTcKAA-143" value="" style="edgeStyle=orthogonalEdgeStyle;fontSize=12;html=1;endArrow=blockThin;endFill=1;rounded=0;strokeWidth=2;endSize=4;startSize=4;dashed=0;strokeColor=#4284F3;entryX=1;entryY=0.5;entryDx=0;entryDy=0;entryPerimeter=0;startArrow=classic;startFill=1;" edge="1" parent="KAji3a2Ef0K3yzbTcKAA-105" target="KAji3a2Ef0K3yzbTcKAA-122">
          <mxGeometry width="100" relative="1" as="geometry">
            <mxPoint x="260" y="420" as="sourcePoint" />
            <mxPoint x="360" y="340" as="targetPoint" />
            <Array as="points">
              <mxPoint x="260" y="420" />
            </Array>
          </mxGeometry>
        </mxCell>
        <mxCell id="KAji3a2Ef0K3yzbTcKAA-152" style="edgeStyle=orthogonalEdgeStyle;rounded=0;orthogonalLoop=1;jettySize=auto;html=1;entryX=0;entryY=0.5;entryDx=0;entryDy=0;exitX=0.5;exitY=0;exitDx=0;exitDy=0;" edge="1" parent="1" source="KAji3a2Ef0K3yzbTcKAA-1" target="KAji3a2Ef0K3yzbTcKAA-54">
          <mxGeometry relative="1" as="geometry">
            <mxPoint x="1590.0011111111114" y="-998.75" as="sourcePoint" />
            <mxPoint x="1979.89" y="-1280" as="targetPoint" />
            <Array as="points">
              <mxPoint x="1700" y="-1270" />
            </Array>
          </mxGeometry>
        </mxCell>
        <mxCell id="KAji3a2Ef0K3yzbTcKAA-153" value="&lt;font style=&quot;font-size: 18px;&quot;&gt;Merge to Dev&lt;/font&gt;" style="edgeLabel;html=1;align=center;verticalAlign=middle;resizable=0;points=[];" vertex="1" connectable="0" parent="KAji3a2Ef0K3yzbTcKAA-152">
          <mxGeometry x="-0.4259" y="6" relative="1" as="geometry">
            <mxPoint x="116" y="-139" as="offset" />
          </mxGeometry>
        </mxCell>
        <mxCell id="KAji3a2Ef0K3yzbTcKAA-154" style="edgeStyle=orthogonalEdgeStyle;rounded=0;orthogonalLoop=1;jettySize=auto;html=1;entryX=0;entryY=0.5;entryDx=0;entryDy=0;" edge="1" parent="1" source="KAji3a2Ef0K3yzbTcKAA-1" target="KAji3a2Ef0K3yzbTcKAA-114">
          <mxGeometry relative="1" as="geometry">
            <Array as="points">
              <mxPoint x="1700" y="-390" />
            </Array>
          </mxGeometry>
        </mxCell>
        <mxCell id="KAji3a2Ef0K3yzbTcKAA-156" value="&lt;font style=&quot;font-size: 18px;&quot;&gt;TAG&amp;nbsp;&lt;/font&gt;" style="edgeLabel;html=1;align=center;verticalAlign=middle;resizable=0;points=[];" vertex="1" connectable="0" parent="KAji3a2Ef0K3yzbTcKAA-154">
          <mxGeometry x="0.6176" y="3" relative="1" as="geometry">
            <mxPoint as="offset" />
          </mxGeometry>
        </mxCell>
        <mxCell id="KAji3a2Ef0K3yzbTcKAA-1" value="" style="shape=image;html=1;verticalAlign=top;verticalLabelPosition=bottom;labelBackgroundColor=#ffffff;imageAspect=0;aspect=fixed;image=https://cdn4.iconfinder.com/data/icons/socialcones/508/Gitlab-128.png" vertex="1" parent="1">
          <mxGeometry x="1630" y="-1000" width="160" height="160" as="geometry" />
        </mxCell>
        <mxCell id="KAji3a2Ef0K3yzbTcKAA-6" style="edgeStyle=orthogonalEdgeStyle;rounded=0;orthogonalLoop=1;jettySize=auto;html=1;" edge="1" parent="1" source="KAji3a2Ef0K3yzbTcKAA-3" target="KAji3a2Ef0K3yzbTcKAA-1">
          <mxGeometry relative="1" as="geometry" />
        </mxCell>
        <mxCell id="KAji3a2Ef0K3yzbTcKAA-151" value="&lt;font style=&quot;font-size: 18px;&quot;&gt;PUSH&lt;/font&gt;" style="edgeLabel;html=1;align=center;verticalAlign=middle;resizable=0;points=[];" vertex="1" connectable="0" parent="KAji3a2Ef0K3yzbTcKAA-6">
          <mxGeometry x="0.0698" y="4" relative="1" as="geometry">
            <mxPoint x="10" y="4" as="offset" />
          </mxGeometry>
        </mxCell>
        <mxCell id="KAji3a2Ef0K3yzbTcKAA-162" value="" style="group" vertex="1" connectable="0" parent="1">
          <mxGeometry x="1110" y="-1700" width="230" height="290" as="geometry" />
        </mxCell>
        <mxCell id="KAji3a2Ef0K3yzbTcKAA-158" value="&lt;font color=&quot;#9e9e9e&quot;&gt;&lt;span style=&quot;font-size: 24px;&quot;&gt;Users&lt;/span&gt;&lt;/font&gt;" style="rounded=1;absoluteArcSize=1;arcSize=2;html=1;strokeColor=#6c8ebf;shadow=0;dashed=0;strokeColor=none;fontSize=12;align=left;verticalAlign=top;spacing=10;spacingTop=-4;fillColor=#dae8fc;" vertex="1" parent="KAji3a2Ef0K3yzbTcKAA-162">
          <mxGeometry width="229.99999999999997" height="290" as="geometry" />
        </mxCell>
        <mxCell id="KAji3a2Ef0K3yzbTcKAA-159" value="" style="strokeColor=#dddddd;fillColor=#ffffff;shadow=1;strokeWidth=1;rounded=1;absoluteArcSize=1;arcSize=2;labelPosition=center;verticalLabelPosition=middle;align=center;verticalAlign=bottom;spacingLeft=0;fontColor=#999999;fontSize=12;whiteSpace=wrap;spacingBottom=2;html=1;" vertex="1" parent="KAji3a2Ef0K3yzbTcKAA-162">
          <mxGeometry x="25.56" y="100" width="174.44" height="170" as="geometry" />
        </mxCell>
        <mxCell id="KAji3a2Ef0K3yzbTcKAA-161" value="" style="outlineConnect=0;dashed=0;verticalLabelPosition=bottom;verticalAlign=top;align=center;html=1;shape=mxgraph.aws3.user;fillColor=#D2D3D3;gradientColor=none;" vertex="1" parent="KAji3a2Ef0K3yzbTcKAA-162">
          <mxGeometry x="60" y="119.57999999999993" width="92.86" height="130" as="geometry" />
        </mxCell>
        <mxCell id="KAji3a2Ef0K3yzbTcKAA-165" style="edgeStyle=orthogonalEdgeStyle;rounded=0;orthogonalLoop=1;jettySize=auto;html=1;" edge="1" parent="1" source="KAji3a2Ef0K3yzbTcKAA-158" target="KAji3a2Ef0K3yzbTcKAA-80">
          <mxGeometry relative="1" as="geometry">
            <Array as="points">
              <mxPoint x="1500" y="-1520" />
              <mxPoint x="1500" y="-1520" />
            </Array>
          </mxGeometry>
        </mxCell>
        <mxCell id="KAji3a2Ef0K3yzbTcKAA-167" value="&lt;span style=&quot;font-size: 24px;&quot;&gt;sre.development.pimenvibritania.site&lt;/span&gt;" style="edgeLabel;html=1;align=center;verticalAlign=middle;resizable=0;points=[];" vertex="1" connectable="0" parent="KAji3a2Ef0K3yzbTcKAA-165">
          <mxGeometry x="-0.2433" y="3" relative="1" as="geometry">
            <mxPoint x="1" as="offset" />
          </mxGeometry>
        </mxCell>
        <mxCell id="KAji3a2Ef0K3yzbTcKAA-166" style="edgeStyle=orthogonalEdgeStyle;rounded=0;orthogonalLoop=1;jettySize=auto;html=1;" edge="1" parent="1" source="KAji3a2Ef0K3yzbTcKAA-158" target="KAji3a2Ef0K3yzbTcKAA-122">
          <mxGeometry relative="1" as="geometry">
            <Array as="points">
              <mxPoint x="1225" y="-630" />
            </Array>
          </mxGeometry>
        </mxCell>
        <mxCell id="KAji3a2Ef0K3yzbTcKAA-168" value="&lt;font style=&quot;font-size: 24px;&quot;&gt;sre.pimenvibritania.site&lt;/font&gt;" style="edgeLabel;html=1;align=center;verticalAlign=middle;resizable=0;points=[];" vertex="1" connectable="0" parent="KAji3a2Ef0K3yzbTcKAA-166">
          <mxGeometry x="0.2371" y="1" relative="1" as="geometry">
            <mxPoint as="offset" />
          </mxGeometry>
        </mxCell>
        <mxCell id="KAji3a2Ef0K3yzbTcKAA-5" value="" style="group" vertex="1" connectable="0" parent="1">
          <mxGeometry x="1280" y="-1100" width="230" height="290" as="geometry" />
        </mxCell>
        <mxCell id="KAji3a2Ef0K3yzbTcKAA-2" value="&lt;font style=&quot;font-size: 24px;&quot;&gt;Development&lt;br&gt;Team&lt;/font&gt;" style="rounded=1;absoluteArcSize=1;arcSize=2;html=1;strokeColor=none;gradientColor=none;shadow=0;dashed=0;strokeColor=none;fontSize=12;fontColor=#9E9E9E;align=left;verticalAlign=top;spacing=10;spacingTop=-4;fillColor=#F3E5F5;" vertex="1" parent="KAji3a2Ef0K3yzbTcKAA-5">
          <mxGeometry width="229.99999999999997" height="290" as="geometry" />
        </mxCell>
        <mxCell id="KAji3a2Ef0K3yzbTcKAA-3" value="" style="strokeColor=#dddddd;fillColor=#ffffff;shadow=1;strokeWidth=1;rounded=1;absoluteArcSize=1;arcSize=2;labelPosition=center;verticalLabelPosition=middle;align=center;verticalAlign=bottom;spacingLeft=0;fontColor=#999999;fontSize=12;whiteSpace=wrap;spacingBottom=2;html=1;" vertex="1" parent="KAji3a2Ef0K3yzbTcKAA-5">
          <mxGeometry x="25.555555555555554" y="96.66666666666669" width="178.88888888888889" height="169.16666666666669" as="geometry" />
        </mxCell>
        <mxCell id="KAji3a2Ef0K3yzbTcKAA-4" value="" style="dashed=0;connectable=0;html=1;fillColor=#757575;strokeColor=none;shape=mxgraph.gcp2.laptop;part=1;" vertex="1" parent="KAji3a2Ef0K3yzbTcKAA-3">
          <mxGeometry x="0.5" width="150" height="120" relative="1" as="geometry">
            <mxPoint x="-76" y="28.5" as="offset" />
          </mxGeometry>
        </mxCell>
      </root>
    </mxGraphModel>
  </diagram>
</mxfile>
